# xmcd
#
# Track frame offsets:
#	150
#	21579
#	37622
#	56060
#	65150
#	80908
#	97396
#	117219
#	139746
#	154544
#	170663
#	187856
#	200692
#	214873
#	228283
#	246754
#	255768
#	269241
#
# Disc length: 3768 seconds
#
# Revision: 1
# Processed by: cddbd v1.5.2PL0 Copyright (c) Steve Scherf et al.
# Submitted via: ExactAudioCopy v0.99pb3
#
DISCID=0a0eb612
DTITLE=Various Artist - Blues Sur Seine Cd2
DYEAR=2008
DGENRE=Blues
TTITLE0=Roland Tchakounté - Son Am
TTITLE1=Spoonful - the Fate Dogs Me
TTITLE2=Charles Pasi - Talkin' With My Friends
TTITLE3=Mountain Men - Fishin' Blues
TTITLE4=Stringers in the Night - Senior Swing
TTITLE5=Touchez Pas Au Grisbi - La Faute À Lautner
TTITLE6=Shake Your Hips - Computer Lover
TTITLE7=Awek - Woman You Don't Have to Go
TTITLE8=Oc Blues Band - Mother's Day
TTITLE9=Hoodoomen, (The) - Francis' Boogie
TTITLE10=Eric Ter - Nouveau Code
TTITLE11=Mathieu Pesqué - Johnny
TTITLE12=Cotton Belly's - Lazy Owl
TTITLE13=K-Led Bâ'sam - From Heaven Right Down to Hell
TTITLE14=Malted Milk - Straight Woman Blues
TTITLE15=Roland Malines - Yodelé Blues
TTITLE16=Gérard Tartarini - Mississippi
TTITLE17=Julien Brunetaud - Russian Rag
EXTD=
EXTT0=
EXTT1=
EXTT2=
EXTT3=
EXTT4=
EXTT5=
EXTT6=
EXTT7=
EXTT8=
EXTT9=
EXTT10=
EXTT11=
EXTT12=
EXTT13=
EXTT14=
EXTT15=
EXTT16=
EXTT17=
PLAYORDER=
